<?xml version="1.0" encoding="UTF-8" standalone="no"?>
<!DOCTYPE svg PUBLIC "-//W3C//DTD SVG 1.1//EN" "http://www.w3.org/Graphics/SVG/1.1/DTD/svg11.dtd">
<svg width="100%" height="100%" viewBox="0 0 176 176" version="1.1" xmlns="http://www.w3.org/2000/svg" xmlns:xlink="http://www.w3.org/1999/xlink" xml:space="preserve" xmlns:serif="http://www.serif.com/" style="fill-rule:evenodd;clip-rule:evenodd;stroke-linejoin:round;stroke-miterlimit:1.41421;">
    <g transform="matrix(1,0,0,1,-942.949,-686.763)">
        <g transform="matrix(0.390276,0,0,0.390276,901.653,224.186)">
            <g>
                <g transform="matrix(2.42589,0,0,2.42589,-1762.57,620.079)">
                    <path d="M863.021,232.977C914.258,232.977 955.857,274.575 955.857,325.813C955.857,377.051 914.258,418.649 863.021,418.649C811.783,418.649 770.184,377.051 770.184,325.813C770.184,274.575 811.783,232.977 863.021,232.977ZM863.021,237.464C911.782,237.464 951.369,277.052 951.369,325.813C951.369,374.574 911.782,414.161 863.021,414.161C814.26,414.161 774.672,374.574 774.672,325.813C774.672,277.052 814.26,237.464 863.021,237.464Z" style="fill:rgb(245,245,245);"/>
                </g>
                <g transform="matrix(2.56229,0,0,2.56229,-2310.29,-574.428)">
                    <path d="M1030.84,693.983C1075.37,693.983 1111.52,730.132 1111.52,774.657C1111.52,819.182 1075.37,855.331 1030.84,855.331C986.318,855.331 950.169,819.182 950.169,774.657C950.169,730.132 986.318,693.983 1030.84,693.983ZM1058.68,736.856C1051.91,727.628 1041.46,721.476 1029.77,721.476C1025.78,721.476 1021.92,722.15 1018.32,723.396C1004.71,728.102 994.705,740.976 994.705,756.541C984.247,763.308 978.095,774.381 978.095,786.684C978.095,806.369 994.089,822.979 1014.39,822.979C1028.54,822.979 1040.84,814.367 1046.99,802.063C1050.07,803.294 1053.76,803.909 1056.84,803.909C1075.29,803.909 1090.67,788.53 1090.67,770.074C1090.67,752.235 1076.52,737.471 1058.68,736.856ZM999.626,757.771C999.626,741.777 1012.55,728.858 1028.54,728.858C1038.38,728.858 1047.61,733.78 1053.15,742.392C1053.76,743.622 1054.99,743.622 1055.61,743.622C1070.99,743.622 1083.29,755.926 1083.29,771.305C1084.52,785.454 1072.22,797.757 1056.84,797.757C1053.14,797.757 1049.45,797.142 1046.38,795.912L1043.92,795.912C1043.91,795.912 1043.3,795.913 1043.3,796.527C1043.3,796.527 1042.69,796.527 1042.69,797.142C1042.69,797.142 1042.69,797.757 1042.07,797.757L1042.07,798.372C1037.77,810.06 1026.69,818.057 1013.77,818.057C997.166,818.057 983.632,804.524 983.632,787.914C983.632,777.456 989.784,766.998 999.011,762.077C999.011,762.077 999.626,762.077 999.626,761.462L999.626,757.771ZM1017.47,797.142C1016.24,795.911 1014.39,795.911 1013.16,797.142C1011.93,798.372 1011.93,800.218 1013.16,801.448L1014.39,802.679C1015,803.294 1015.62,803.294 1016.85,803.294C1018.08,803.294 1018.7,803.294 1019.31,802.679C1020.54,801.448 1020.54,799.603 1019.31,798.372L1017.47,797.142ZM1005.16,797.142C1003.93,795.911 1002.09,795.911 1000.86,797.142C999.626,798.372 999.626,800.218 1000.86,801.448L1002.09,802.679C1002.7,803.294 1003.32,803.294 1004.55,803.294C1005.78,803.294 1006.39,803.294 1007.01,802.679C1008.24,801.448 1008.24,799.603 1007.01,798.372L1005.16,797.142ZM1005.16,784.839C1003.93,783.608 1002.09,783.608 1000.86,784.839C999.626,786.069 999.626,787.914 1000.86,789.145L1002.09,790.375C1002.7,790.99 1003.32,790.99 1004.55,790.99C1005.78,790.99 1006.39,790.99 1007.01,790.375C1008.24,789.145 1008.24,787.3 1007.01,786.069L1005.16,784.839ZM992.859,784.839C991.629,783.608 989.783,783.608 988.553,784.839C987.322,786.069 987.322,787.914 988.553,789.145L989.783,790.375C990.398,790.99 991.014,790.99 992.244,790.99C993.474,790.99 994.09,790.99 994.705,790.375C995.935,789.145 995.935,787.3 994.705,786.069L992.859,784.839ZM1032.23,736.24C1018.08,736.24 1007.01,747.928 1007.01,761.462C1007.01,774.996 1018.7,786.684 1032.23,786.684C1045.76,786.684 1057.45,774.996 1057.45,761.462C1057.45,747.929 1046.38,736.24 1032.23,736.24ZM1032.23,781.148C1021.77,781.148 1013.16,772.535 1013.16,762.077C1013.16,751.619 1021.77,742.392 1032.23,742.392C1042.69,742.392 1051.3,751.004 1051.3,761.462C1051.3,771.92 1042.69,781.148 1032.23,781.148ZM1023.62,757.771C1024.85,756.541 1025.46,754.695 1024.23,753.465C1023.62,752.235 1021.77,751.619 1020.54,752.85C1017.47,755.311 1014.39,760.847 1019.31,766.999C1019.93,767.614 1021.16,768.229 1021.77,768.229C1022.39,768.229 1023,768.229 1023.62,767.614C1024.85,766.384 1025.46,764.538 1024.23,763.308C1021.16,760.232 1023,758.386 1023.62,757.771Z" style="fill:rgb(245,245,245);"/>
                </g>
            </g>
        </g>
    </g>
</svg>
