<?xml version="1.0" encoding="UTF-8" standalone="no"?>
<!DOCTYPE svg PUBLIC "-//W3C//DTD SVG 1.1//EN" "http://www.w3.org/Graphics/SVG/1.1/DTD/svg11.dtd">
<svg width="100%" height="100%" viewBox="0 0 176 176" version="1.1" xmlns="http://www.w3.org/2000/svg" xmlns:xlink="http://www.w3.org/1999/xlink" xml:space="preserve" xmlns:serif="http://www.serif.com/" style="fill-rule:evenodd;clip-rule:evenodd;stroke-linejoin:round;stroke-miterlimit:1.41421;">
    <g transform="matrix(1,0,0,1,-942.949,-928.515)">
        <g transform="matrix(0.390276,0,0,0.390276,901.653,224.186)">
            <g>
                <g transform="matrix(2.42589,0,0,2.42589,-1762.57,1239.52)">
                    <path d="M863.021,232.977C914.258,232.977 955.857,274.575 955.857,325.813C955.857,377.051 914.258,418.649 863.021,418.649C811.783,418.649 770.184,377.051 770.184,325.813C770.184,274.575 811.783,232.977 863.021,232.977ZM863.021,237.464C911.782,237.464 951.369,277.052 951.369,325.813C951.369,374.574 911.782,414.161 863.021,414.161C814.26,414.161 774.672,374.574 774.672,325.813C774.672,277.052 814.26,237.464 863.021,237.464Z" style="fill:rgb(245,245,245);"/>
                </g>
                <g transform="matrix(2.56229,0,0,2.56229,-2310.29,-574.428)">
                    <path d="M1030.84,935.735C1075.37,935.735 1111.52,971.884 1111.52,1016.41C1111.52,1060.93 1075.37,1097.08 1030.84,1097.08C986.318,1097.08 950.169,1060.93 950.169,1016.41C950.169,971.884 986.318,935.735 1030.84,935.735ZM1081.72,1004.05C1079.72,998.864 1077.54,993.133 1074.03,988.743C1071.38,985.425 1066.41,982.551 1062.01,983.223C1061.95,983.232 1061.58,983.312 1060.94,983.455C1061.1,984.556 1061.18,985.673 1061.18,986.802C1061.18,989.935 1060.57,992.978 1059.36,995.846C1058.19,998.613 1056.51,1001.1 1054.38,1003.23C1052.25,1005.36 1049.77,1007.03 1047,1008.2C1044.13,1009.42 1041.09,1010.03 1037.95,1010.03C1034.82,1010.03 1031.78,1009.42 1028.91,1008.2C1026.14,1007.03 1023.66,1005.36 1021.53,1003.23C1019.4,1001.1 1017.72,998.613 1016.55,995.846C1016.27,995.166 1016.01,994.475 1015.79,993.776C997.538,997.964 980.613,1001.85 979.625,1002.08C978.753,1002.29 977.693,1002.41 976.911,1002.82C976.251,1003.17 975.779,1003.74 975.779,1004.73L975.779,1050.3C975.779,1052.09 977.677,1053.75 980.016,1053.99L996.955,1055.75L1073.14,1063.68C1080.15,1064.41 1085.84,1060.64 1085.84,1055.24C1085.84,1051.84 1083.57,1048.62 1080.14,1046.51C1083.57,1045.12 1085.84,1042.36 1085.84,1038.96C1085.84,1035.57 1083.57,1032.34 1080.14,1030.24C1090.27,1026.12 1084.55,1011.42 1081.72,1004.05ZM1059.41,1054.85L984.73,1047.07L984.73,1039.61L1059.41,1047.38C1066.42,1048.11 1072.11,1050.37 1072.11,1052.43C1072.11,1054.49 1066.42,1055.58 1059.41,1054.85ZM1059.41,1039.97L984.73,1032.19L984.73,1024.72L1059.41,1032.5C1066.42,1033.23 1072.11,1035.49 1072.11,1037.56C1072.11,1039.62 1066.42,1040.7 1059.41,1039.97ZM1059.41,1025.09L984.73,1017.32L984.73,1009.85L1059.41,1017.62C1066.42,1018.35 1072.11,1020.61 1072.11,1022.68C1072.11,1024.74 1066.42,1025.82 1059.41,1025.09ZM1021.89,986.802C1021.89,988.684 1022.21,990.49 1022.81,992.168C1025.01,998.404 1030.96,1002.87 1037.95,1002.87C1046.83,1002.87 1054.02,995.676 1054.02,986.802C1054.02,986.209 1053.99,985.623 1053.93,985.046C1053.05,976.998 1046.24,970.733 1037.95,970.733C1037.11,970.733 1036.28,970.799 1035.47,970.925C1034.92,969.8 1034.31,968.701 1033.65,967.629C1032.99,966.548 1032.28,965.495 1031.54,964.471C1030.63,963.217 1029.67,962.006 1028.68,960.842C1026.85,958.677 1024.87,956.628 1022.69,954.817C1020.77,953.23 1018.74,951.702 1016.46,950.691C1015.16,950.12 1013.68,950.302 1012.91,951.621C1012.26,952.736 1012.55,954.595 1013.84,955.167C1014.91,955.642 1015.93,956.233 1016.9,956.89C1017.18,957.08 1017.46,957.273 1017.73,957.473C1017.83,957.545 1018.19,957.818 1018.28,957.887C1018.7,958.215 1019.11,958.549 1019.51,958.895C1020.56,959.806 1021.58,960.765 1022.55,961.768C1023.57,962.824 1024.55,963.919 1025.47,965.055C1025.74,965.378 1026,965.703 1026.26,966.032C1026.26,966.033 1026.26,966.033 1026.26,966.034C1026.27,966.046 1026.28,966.06 1026.29,966.075C1026.4,966.217 1026.51,966.36 1026.61,966.504C1026.62,966.509 1026.62,966.514 1026.63,966.52C1027.05,967.088 1027.46,967.663 1027.86,968.248C1028.13,968.657 1028.41,969.07 1028.67,969.487C1029.19,970.3 1029.69,971.129 1030.15,971.976C1030.26,972.176 1030.37,972.378 1030.47,972.58C1025.37,975.271 1021.89,980.63 1021.89,986.802Z" style="fill:rgb(245,245,245);"/>
                </g>
            </g>
        </g>
    </g>
</svg>
