<?xml version="1.0" encoding="UTF-8" standalone="no"?>
<!DOCTYPE svg PUBLIC "-//W3C//DTD SVG 1.1//EN" "http://www.w3.org/Graphics/SVG/1.1/DTD/svg11.dtd">
<svg width="100%" height="100%" viewBox="0 0 176 176" version="1.1" xmlns="http://www.w3.org/2000/svg" xmlns:xlink="http://www.w3.org/1999/xlink" xml:space="preserve" xmlns:serif="http://www.serif.com/" style="fill-rule:evenodd;clip-rule:evenodd;stroke-linejoin:round;stroke-miterlimit:1.41421;">
    <g transform="matrix(1,0,0,1,-698.006,-928.515)">
        <g transform="matrix(0.390276,0,0,0.390276,901.653,224.186)">
            <g>
                <g transform="matrix(2.42589,0,0,2.42589,-2390.19,1239.52)">
                    <path d="M863.021,232.977C914.258,232.977 955.857,274.575 955.857,325.813C955.857,377.051 914.258,418.649 863.021,418.649C811.783,418.649 770.184,377.051 770.184,325.813C770.184,274.575 811.783,232.977 863.021,232.977ZM863.021,237.464C911.782,237.464 951.369,277.052 951.369,325.813C951.369,374.574 911.782,414.161 863.021,414.161C814.26,414.161 774.672,374.574 774.672,325.813C774.672,277.052 814.26,237.464 863.021,237.464Z" style="fill:rgb(245,245,245);"/>
                </g>
                <g transform="matrix(2.56229,0,0,2.56229,-2310.29,-574.428)">
                    <path d="M785.901,935.735C830.426,935.735 866.575,971.884 866.575,1016.41C866.575,1060.93 830.426,1097.08 785.901,1097.08C741.375,1097.08 705.226,1060.93 705.226,1016.41C705.226,971.884 741.375,935.735 785.901,935.735ZM843.189,1045.78L728.315,1045.78C726.926,1045.78 725.635,1046.49 724.896,1047.67C724.157,1048.85 724.075,1050.32 724.677,1051.57L728.286,1059.06C729.972,1062.56 733.512,1064.78 737.394,1064.78L834.108,1064.78C837.991,1064.78 841.531,1062.56 843.218,1059.06L846.826,1051.57C847.428,1050.32 847.347,1048.85 846.608,1047.67C845.869,1046.49 844.578,1045.78 843.189,1045.78ZM734.632,1038.45L776.884,1038.45C775.712,1037.38 774.655,1036.19 773.747,1034.85C769.77,1029.01 769.083,1021.94 771.814,1014.96C774.169,1008.94 778.846,1003.42 785.339,999.002C788.2,997.055 791.668,995.271 795.383,993.759C790.468,991.848 785.234,990.473 779.747,989.878C775.892,989.459 772.108,989.239 768.449,989.239C744.961,989.239 726.567,998.423 726.567,1022.09C726.567,1030.15 730.6,1038.45 734.632,1038.45ZM842.492,1030L832.471,1028C832.467,1027.96 832.464,1027.93 832.46,1027.89C832.203,1025.63 830.934,1022.32 828.498,1018.59C827.909,1019.7 827.336,1020.7 826.829,1021.54C822.742,1028.29 817.427,1034.19 812.243,1037.72C812.104,1037.82 811.963,1037.9 811.823,1038C822.15,1038 830.984,1038 841.701,1038C843.93,1038 845.738,1036.19 845.738,1033.96C845.738,1032.04 844.379,1030.38 842.492,1030ZM789.204,1004.68C778.542,1011.93 773.808,1022.73 779.425,1030.99C782.333,1035.26 787.136,1037.34 792.57,1037.34C797.631,1037.34 803.24,1035.54 808.38,1032.04C817.517,1025.82 826.781,1010.76 826.351,1002.1L832.771,997.732C834.747,996.754 837.056,996.521 839.132,996.889C840.99,997.217 843.516,997.336 845.075,996.274C847.627,994.533 848.292,991.048 846.56,988.484C845.559,987.026 843.999,986.207 842.369,986.077C842.842,984.514 842.661,982.761 841.664,981.3C839.919,978.735 836.428,978.079 833.874,979.819C832.448,980.788 831.597,983.348 831.326,985.742C831.211,986.648 830.605,989.783 828.088,992.064L821.925,996.258C820.655,995.909 819.133,995.747 817.437,995.747C809.095,995.748 796.552,999.678 789.204,1004.68ZM803.2,989.658C803.338,988.816 803.401,988.016 803.362,987.276L808.675,983.661C810.739,982.641 812.834,982.779 813.941,982.967C814.027,982.984 817.135,983.629 818.852,982.46C820.967,981.022 821.522,978.131 820.077,976.02C819.254,974.808 817.967,974.13 816.616,974.02C817.009,972.728 816.852,971.275 816.033,970.073C814.595,967.95 811.705,967.403 809.59,968.845C808.408,969.648 807.703,971.759 807.482,973.744C807.384,974.5 806.883,977.091 804.8,978.97L799.704,982.444C796.35,981.53 790.886,982.202 785.408,983.782C791.016,984.831 796.607,986.626 802.089,989.147L803.2,989.658Z" style="fill:rgb(245,245,245);"/>
                </g>
            </g>
        </g>
    </g>
</svg>
