<?xml version="1.0" encoding="UTF-8" standalone="no"?><!DOCTYPE svg PUBLIC "-//W3C//DTD SVG 1.1//EN" "http://www.w3.org/Graphics/SVG/1.1/DTD/svg11.dtd"><svg width="100%" height="100%" viewBox="0 0 88 88" version="1.1" xmlns="http://www.w3.org/2000/svg" xmlns:xlink="http://www.w3.org/1999/xlink" xml:space="preserve" xmlns:serif="http://www.serif.com/" style="fill-rule:evenodd;clip-rule:evenodd;stroke-linejoin:round;stroke-miterlimit:1.41421;"><g><path d="M43.947,0c24.255,0 43.947,19.692 43.947,43.947c0,24.255 -19.692,43.947 -43.947,43.947c-24.255,0 -43.947,-19.692 -43.947,-43.947c0,-24.255 19.692,-43.947 43.947,-43.947Zm0,2.124c23.083,0 41.823,18.741 41.823,41.823c0,23.083 -18.74,41.823 -41.823,41.823c-23.082,0 -41.823,-18.74 -41.823,-41.823c0,-23.082 18.741,-41.823 41.823,-41.823Z" style="fill:#f5f5f5;"/><path d="M43.947,3.61c15.112,0 28.294,8.328 35.203,20.641c0.208,0.371 0.41,0.745 0.607,1.122c0.095,0.183 0.189,0.367 0.281,0.551l0.051,0.103l0.103,0.209c0.527,1.075 1.007,2.177 1.439,3.303c0.069,0.18 0.136,0.36 0.203,0.542c0.261,0.711 0.502,1.431 0.723,2.161c0.073,0.24 0.143,0.481 0.212,0.723c0.049,0.176 0.098,0.353 0.145,0.53l0.037,0.135l0.011,0.044c0.863,3.28 1.322,6.723 1.322,10.273c0,22.263 -18.074,40.337 -40.337,40.337c-0.348,0 -0.695,-0.004 -1.04,-0.013c-1.421,-0.036 -2.824,-0.146 -4.205,-0.325c-0.383,-0.05 -0.765,-0.105 -1.144,-0.166c-0.083,-0.013 -0.167,-0.027 -0.25,-0.04c-19.108,-3.17 -33.698,-19.791 -33.698,-39.793c0,-3.168 0.366,-6.252 1.059,-9.211l0.032,-0.137l0.021,-0.09c0.163,-0.678 0.343,-1.35 0.54,-2.014l0.018,-0.062l0.041,-0.137c0.169,-0.56 0.35,-1.115 0.543,-1.665l0.028,-0.082l0.083,-0.233c0.112,-0.31 0.227,-0.618 0.345,-0.924c0.089,-0.23 0.18,-0.458 0.273,-0.686l0.094,-0.227c0.053,-0.127 0.106,-0.253 0.16,-0.379l0.031,-0.073l0.047,-0.108c0.418,-0.962 0.872,-1.906 1.361,-2.828c6.774,-12.773 20.208,-21.481 35.661,-21.481l0,0Zm20.623,63.441l-41.068,0c0,1.55 1.073,2.806 2.396,2.806l7.838,0c0.109,0.798 0.675,1.423 1.389,1.423l17.819,0c0.717,0 1.28,-0.621 1.389,-1.423l7.838,0c1.325,0 2.399,-1.255 2.399,-2.806Zm-0.535,-31.067l-41.766,0c0,14.818 1.708,25.509 12.518,29.499l16.731,0c4.281,-1.578 7.121,-4.228 9.004,-7.752c4.102,-0.105 10.7,-2.224 10.948,-9.66c0.106,-3.256 -0.925,-5.063 -1.808,-5.999c-1.708,-1.816 -4.114,-1.845 -5.697,-1.616c0.045,-1.449 0.07,-2.931 0.07,-4.472Zm-1.794,17.495c0.786,-2.65 1.252,-5.632 1.508,-8.908c1.109,-0.239 3.019,-0.391 3.984,0.641c0.177,0.19 0.729,0.781 0.666,2.686c-0.13,3.852 -3.773,5.146 -6.158,5.581Zm-13.706,-19.397c0,0 7.576,-1.985 3.453,-9.563c-1.497,-3.286 0.567,-4.459 0.567,-4.459c0,0 -4.877,0.192 -2.818,5.404c1.648,4.19 1.159,6.569 -1.202,8.618Zm-18.798,-1.804c0,0 5.626,-1.475 2.564,-7.102c-1.111,-2.44 0.422,-3.311 0.422,-3.311c0,0 -3.622,0.142 -2.093,4.012c1.224,3.112 0.861,4.879 -0.893,6.401Zm8.687,-1.804c0,0 7.702,-0.651 4.173,-8.125c-2.835,-6 -2.188,-9.521 1.439,-12.702c0,0 -11.879,3.483 -4.951,14.259c2.541,4.696 -0.661,6.568 -0.661,6.568Z" style="fill:#f5f5f5;"/></g></svg>