<?xml version="1.0" encoding="UTF-8" standalone="no"?>
<!DOCTYPE svg PUBLIC "-//W3C//DTD SVG 1.1//EN" "http://www.w3.org/Graphics/SVG/1.1/DTD/svg11.dtd">
<svg width="100%" height="100%" viewBox="0 0 176 176" version="1.1" xmlns="http://www.w3.org/2000/svg" xmlns:xlink="http://www.w3.org/1999/xlink" xml:space="preserve" xmlns:serif="http://www.serif.com/" style="fill-rule:evenodd;clip-rule:evenodd;stroke-linejoin:round;stroke-miterlimit:1.41421;">
    <g transform="matrix(1,0,0,1,-1175.53,-686.763)">
        <g transform="matrix(0.390276,0,0,0.390276,901.653,224.186)">
            <g>
                <g transform="matrix(2.42589,0,0,2.42589,-1166.64,620.079)">
                    <path d="M863.021,232.977C914.258,232.977 955.857,274.575 955.857,325.813C955.857,377.051 914.258,418.649 863.021,418.649C811.783,418.649 770.184,377.051 770.184,325.813C770.184,274.575 811.783,232.977 863.021,232.977ZM863.021,237.464C911.782,237.464 951.369,277.052 951.369,325.813C951.369,374.574 911.782,414.161 863.021,414.161C814.26,414.161 774.672,374.574 774.672,325.813C774.672,277.052 814.26,237.464 863.021,237.464Z" style="fill:rgb(245,245,245);"/>
                </g>
                <g transform="matrix(2.56229,0,0,2.56229,-2310.29,-574.428)">
                    <path d="M1263.42,693.983C1307.95,693.983 1344.1,730.132 1344.1,774.657C1344.1,819.182 1307.95,855.331 1263.42,855.331C1218.9,855.331 1182.75,819.182 1182.75,774.657C1182.75,730.132 1218.9,693.983 1263.42,693.983ZM1318.75,801.005L1208.29,801.005C1208.3,815.828 1220.31,827.838 1235.13,827.838L1291.92,827.838C1306.74,827.838 1318.75,815.828 1318.75,801.005ZM1224.64,784.037L1211.7,784.037C1207.67,784.037 1204.41,787.304 1204.41,791.33C1204.41,795.359 1207.67,798.623 1211.7,798.623L1315.35,798.623C1319.37,798.623 1322.64,795.357 1322.64,791.33C1322.64,788.196 1320.66,785.529 1317.88,784.5C1315.15,784.987 1312.39,785.285 1309.67,785.472C1303.04,785.927 1295.96,785.856 1289.44,784.037L1286.87,784.037C1279.04,788.21 1269.11,788.708 1260.61,786.97C1258.32,786.501 1255.75,785.05 1253.22,784.037L1245.08,784.037C1239.81,786.118 1235.52,788.593 1229.38,787.556C1226.86,787.13 1225.34,785.761 1224.64,784.037ZM1258,777.751L1248.73,777.751L1240.34,775.642C1239.91,775.536 1239.45,775.527 1239,775.619C1234.65,776.546 1229.45,777.561 1227.97,777.73C1227.33,777.428 1226.01,776.557 1225.18,776.016C1222.31,774.126 1220.4,772.879 1218.44,773.533C1217.66,773.773 1212.22,774.887 1207.41,775.822C1205.8,776.138 1204.74,777.702 1205.06,779.317C1205.37,780.932 1206.93,781.984 1208.55,781.671C1211.22,781.152 1217.01,780.012 1219.41,779.434C1220.06,779.786 1221.18,780.521 1221.91,780.998C1224.55,782.733 1226.12,783.716 1227.7,783.716C1229.31,783.716 1236.08,782.332 1239.56,781.595L1247.63,783.624C1247.87,783.684 1248.11,783.713 1248.36,783.713L1258.29,783.713C1258.48,783.713 1258.67,783.694 1258.87,783.656L1269.38,781.581L1278.7,783.643C1279.26,783.768 1279.84,783.727 1280.37,783.529L1285.69,781.572C1289.42,781.96 1293.73,782.624 1294.97,783.098C1295.44,783.53 1296.02,783.91 1297.23,783.91C1299.2,783.906 1302.81,782.906 1310.23,779.484L1318.34,781.508C1319.94,781.906 1321.56,780.936 1321.95,779.339C1322.35,777.741 1321.38,776.123 1319.78,775.727L1310.65,773.445C1309.98,773.282 1309.28,773.35 1308.66,773.639C1304.69,775.499 1299.7,777.507 1297.85,777.864C1296.5,777.196 1293.44,776.332 1285.59,775.568C1285.14,775.525 1284.69,775.582 1284.27,775.739L1279.13,777.631L1270.05,775.625C1269.65,775.537 1269.23,775.53 1268.83,775.611L1258,777.751ZM1204.8,768.767C1208.84,769.284 1212.44,768.364 1216.92,770.317C1221.39,772.269 1223.39,775.446 1228.88,775.884C1237.67,776.516 1242.55,772.248 1250.11,770.392C1252.98,769.506 1256.25,769.335 1259.53,769.163C1264.6,768.531 1269.17,765.374 1273.5,764.415C1278.93,763.764 1279.55,768.474 1284.35,769.681C1286.57,770.291 1292.33,768.894 1294.88,768.76C1295.21,768.74 1295.61,768.746 1296.03,768.763C1298.99,770.697 1301.69,771.318 1305.58,771.114C1307.04,771.035 1307.49,772.835 1309.27,772.014C1310.24,771.714 1310.49,770.284 1310.66,769.388C1312.37,769.173 1313.81,768.728 1314.7,767.908C1319.62,767.254 1326.94,766.535 1328.1,762.631C1330.36,757.041 1303.3,762.482 1298.91,762.348C1293.8,762.253 1289.63,759.191 1284.18,759.477C1277.27,759.842 1271.89,761.585 1265.4,763.021C1254.22,765.432 1241.43,765.012 1230.91,765.933C1223.29,766.699 1221.55,761.318 1215.27,759.828C1211.96,759.273 1200.3,759.52 1199.06,763.598C1197.12,768.443 1201.87,768.558 1204.8,768.767ZM1317.87,757.225C1317.87,737.481 1301.87,721.476 1282.12,721.476L1244.92,721.476C1225.18,721.476 1209.17,737.481 1209.17,757.225L1317.87,757.225Z" style="fill:rgb(245,245,245);"/>
                </g>
            </g>
        </g>
    </g>
</svg>
