<?xml version="1.0" encoding="UTF-8" standalone="no"?>
<!DOCTYPE svg PUBLIC "-//W3C//DTD SVG 1.1//EN" "http://www.w3.org/Graphics/SVG/1.1/DTD/svg11.dtd">
<svg width="100%" height="100%" viewBox="0 0 176 176" version="1.1" xmlns="http://www.w3.org/2000/svg" xmlns:xlink="http://www.w3.org/1999/xlink" xml:space="preserve" xmlns:serif="http://www.serif.com/" style="fill-rule:evenodd;clip-rule:evenodd;stroke-linejoin:round;stroke-miterlimit:1.41421;">
    <g transform="matrix(1,0,0,1,-1175.53,-928.515)">
        <g transform="matrix(0.390276,0,0,0.390276,901.653,224.186)">
            <g>
                <g transform="matrix(2.42589,0,0,2.42589,-1166.64,1239.52)">
                    <path d="M863.021,232.977C914.258,232.977 955.857,274.575 955.857,325.813C955.857,377.051 914.258,418.649 863.021,418.649C811.783,418.649 770.184,377.051 770.184,325.813C770.184,274.575 811.783,232.977 863.021,232.977ZM863.021,237.464C911.782,237.464 951.369,277.052 951.369,325.813C951.369,374.574 911.782,414.161 863.021,414.161C814.26,414.161 774.672,374.574 774.672,325.813C774.672,277.052 814.26,237.464 863.021,237.464Z" style="fill:rgb(245,245,245);"/>
                </g>
                <g transform="matrix(2.56229,0,0,2.56229,-2310.29,-574.428)">
                    <path d="M1263.42,935.735C1307.95,935.735 1344.1,971.884 1344.1,1016.41C1344.1,1060.93 1307.95,1097.08 1263.42,1097.08C1218.9,1097.08 1182.75,1060.93 1182.75,1016.41C1182.75,971.884 1218.9,935.735 1263.42,935.735ZM1302.98,1069.94C1309.8,1069.94 1315.34,1064.4 1315.34,1057.58L1315.34,975.235C1315.34,968.415 1309.8,962.878 1302.98,962.878L1233.39,962.878C1219.45,962.878 1208.13,974.199 1208.13,988.143L1208.13,1044.68C1208.13,1058.62 1219.45,1069.94 1233.39,1069.94L1302.98,1069.94ZM1288.52,1042.04C1289.75,1042.04 1290.74,1043.04 1290.74,1044.26L1290.74,1048.71C1290.74,1049.94 1289.75,1050.94 1288.52,1050.94L1230.15,1050.94C1228.92,1050.94 1227.92,1049.94 1227.92,1048.71L1227.92,1044.26C1227.92,1043.04 1228.92,1042.04 1230.15,1042.04L1288.52,1042.04ZM1288.52,1020.65C1289.75,1020.65 1290.74,1021.65 1290.74,1022.88L1290.74,1027.33C1290.74,1028.56 1289.75,1029.56 1288.52,1029.56L1230.15,1029.56C1228.92,1029.56 1227.92,1028.56 1227.92,1027.33L1227.92,1022.88C1227.92,1021.65 1228.92,1020.65 1230.15,1020.65L1288.52,1020.65ZM1288.52,1001.24C1289.75,1001.24 1290.74,1002.24 1290.74,1003.47L1290.74,1007.92C1290.74,1009.15 1289.75,1010.14 1288.52,1010.14L1230.15,1010.14C1228.92,1010.14 1227.92,1009.15 1227.92,1007.92L1227.92,1003.47C1227.92,1002.24 1228.92,1001.24 1230.15,1001.24L1288.52,1001.24ZM1297.45,978.657C1299.04,978.658 1300.33,979.948 1300.33,981.536L1300.33,987.294C1300.33,988.882 1299.04,990.172 1297.45,990.172L1230.8,990.172C1229.21,990.172 1227.92,988.882 1227.92,987.294L1227.92,981.536C1227.92,979.948 1229.21,978.658 1230.8,978.657L1297.45,978.657Z" style="fill:rgb(245,245,245);"/>
                </g>
            </g>
        </g>
    </g>
</svg>
