<?xml version="1.0" encoding="UTF-8" standalone="no"?>
<!DOCTYPE svg PUBLIC "-//W3C//DTD SVG 1.1//EN" "http://www.w3.org/Graphics/SVG/1.1/DTD/svg11.dtd">
<svg width="100%" height="100%" viewBox="0 0 176 176" version="1.1" xmlns="http://www.w3.org/2000/svg" xmlns:xlink="http://www.w3.org/1999/xlink" xml:space="preserve" xmlns:serif="http://www.serif.com/" style="fill-rule:evenodd;clip-rule:evenodd;stroke-linejoin:round;stroke-miterlimit:1.41421;">
    <g transform="matrix(1,0,0,1,-698.006,-686.763)">
        <g transform="matrix(0.390276,0,0,0.390276,901.653,224.186)">
            <g>
                <g transform="matrix(2.42589,0,0,2.42589,-2390.19,620.079)">
                    <path d="M863.021,232.977C914.258,232.977 955.857,274.575 955.857,325.813C955.857,377.051 914.258,418.649 863.021,418.649C811.783,418.649 770.184,377.051 770.184,325.813C770.184,274.575 811.783,232.977 863.021,232.977ZM863.021,237.464C911.782,237.464 951.369,277.052 951.369,325.813C951.369,374.574 911.782,414.161 863.021,414.161C814.26,414.161 774.672,374.574 774.672,325.813C774.672,277.052 814.26,237.464 863.021,237.464Z" style="fill:rgb(245,245,245);"/>
                </g>
                <g transform="matrix(2.56229,0,0,2.56229,-2310.29,-574.428)">
                    <path d="M785.901,693.983C830.426,693.983 866.575,730.132 866.575,774.657C866.575,819.182 830.426,855.331 785.901,855.331C741.375,855.331 705.226,819.182 705.226,774.657C705.226,730.132 741.375,693.983 785.901,693.983ZM774.237,827.793C777.951,829.265 782.496,826.154 785.901,826.154C789.305,826.154 794.19,828.558 796.891,827.793C817.144,822.059 829.796,792.129 829.796,777.869C829.796,770.222 827.859,761.428 820.017,755.189C818.033,753.611 815.671,752.196 812.868,751.005C800.43,745.72 796.559,750.662 788.795,751.752C788.752,750.641 788.689,749.531 788.605,748.422C791.228,746.381 796.486,743.053 804.893,740.959C817.708,737.768 822.628,722.141 822.628,722.141C822.628,722.141 807.014,718.709 797.425,724.464C791.97,727.737 789.078,734.742 787.597,740.176C786.934,736.269 786.012,732.407 784.833,728.628C784.624,727.553 784.381,726.631 784.1,725.943C782.102,721.047 776.369,723.428 776.369,725.943C776.369,727.613 777.301,728.455 778.335,729.355C779.634,733.351 780.64,737.436 781.35,741.579C781.445,742.136 781.533,742.695 781.617,743.254C781.654,743.494 781.688,743.734 781.722,743.974C781.727,744.013 781.732,744.046 781.736,744.076C781.746,744.158 781.757,744.24 781.768,744.323C781.911,745.445 782.028,746.571 782.127,747.698C782.244,749.026 782.325,750.357 782.377,751.69C774.495,750.529 769.157,746.111 758.926,750.26C747.245,754.997 742.005,768.369 742.005,777.869C742.005,791.339 755.656,820.426 774.237,827.793ZM754.832,767.954C754.832,764.456 757.751,761.537 761.249,761.537C764.747,761.537 767.665,764.456 767.665,767.954C767.665,771.452 764.747,774.37 761.249,774.37C757.751,774.37 754.832,771.452 754.832,767.954Z" style="fill:rgb(245,245,245);"/>
                </g>
            </g>
        </g>
    </g>
</svg>
