<?xml version="1.0" encoding="UTF-8" standalone="no"?>
<!DOCTYPE svg PUBLIC "-//W3C//DTD SVG 1.1//EN" "http://www.w3.org/Graphics/SVG/1.1/DTD/svg11.dtd">
<svg width="100%" height="100%" viewBox="0 0 176 176" version="1.1" xmlns="http://www.w3.org/2000/svg" xmlns:xlink="http://www.w3.org/1999/xlink" xml:space="preserve" xmlns:serif="http://www.serif.com/" style="fill-rule:evenodd;clip-rule:evenodd;stroke-linejoin:round;stroke-miterlimit:1.41421;">
    <g transform="matrix(1,0,0,1,-695.552,-1140.51)">
        <g transform="matrix(0.390276,0,0,0.390276,901.653,224.186)">
            <g>
                <g transform="matrix(2.42589,0,0,2.42589,-2396.47,1782.71)">
                    <path d="M863.021,232.977C914.258,232.977 955.857,274.575 955.857,325.813C955.857,377.051 914.258,418.649 863.021,418.649C811.783,418.649 770.184,377.051 770.184,325.813C770.184,274.575 811.783,232.977 863.021,232.977ZM863.021,237.464C911.782,237.464 951.369,277.052 951.369,325.813C951.369,374.574 911.782,414.161 863.021,414.161C814.26,414.161 774.672,374.574 774.672,325.813C774.672,277.052 814.26,237.464 863.021,237.464Z" style="fill:rgb(245,245,245);"/>
                </g>
                <g transform="matrix(2.56229,0,0,2.56229,-2310.29,-574.428)">
                    <path d="M783.447,1147.73C827.972,1147.73 864.121,1183.88 864.121,1228.4C864.121,1272.93 827.972,1309.08 783.447,1309.08C738.922,1309.08 702.773,1272.93 702.773,1228.4C702.773,1183.88 738.922,1147.73 783.447,1147.73ZM802.986,1220.68C808.965,1223.89 820.481,1222.91 829.237,1214.15C837.921,1205.47 841.204,1192.77 832.994,1184.29L833,1184.29C832.961,1184.25 832.822,1184.11 832.786,1184.07C832.786,1184.07 832.786,1184.08 832.779,1184.08C824.303,1175.87 811.608,1179.15 802.921,1187.83C794.166,1196.59 793.185,1208.11 796.387,1214.09C795.562,1218.98 788.846,1224.29 782.822,1227.74C778.176,1224.88 772.317,1219.81 771.702,1209.63C772.147,1205.56 770.807,1201.33 767.695,1198.22C767.409,1197.93 766.587,1197.24 766.587,1197.24L743.893,1179.56L741.826,1181.63L766.451,1204.73L763.78,1207.4L739.923,1183.54L737.732,1185.73L761.586,1209.59L759.33,1211.85L735.477,1188L733.481,1189.97L757.192,1213.68L754.475,1216.41L731.437,1192.02L729.175,1194.29L748.007,1218.02C748.007,1218.02 748.456,1218.48 748.646,1218.65C751.386,1221.04 754.827,1222.17 758.232,1222.08C758.257,1222.08 758.292,1222.09 758.305,1222.09C767.272,1222.18 772.812,1227.63 776.297,1232.33C767.771,1240.86 741.309,1267.33 741.309,1267.33L741.316,1267.33C741.29,1267.35 741.256,1267.38 741.23,1267.4C739.075,1269.56 739.075,1273.05 741.23,1275.21C741.34,1275.32 741.756,1275.73 741.861,1275.84C744.016,1278 747.516,1278 749.667,1275.84C749.693,1275.82 749.716,1275.78 749.737,1275.76L749.743,1275.77C749.743,1275.77 774.317,1251.19 783.738,1241.77C792.704,1250.74 817.558,1275.58 817.558,1275.58L817.565,1275.58C817.584,1275.6 817.594,1275.63 817.627,1275.66C819.744,1277.78 823.2,1277.78 825.32,1275.66C827.441,1273.53 827.447,1270.09 825.323,1267.96C825.291,1267.93 825.259,1267.93 825.233,1267.9L825.239,1267.89C825.239,1267.89 797.787,1240.44 790.171,1232.82C793.61,1227.21 798.475,1221.44 802.986,1220.68ZM800.07,1204.29C800.2,1202.83 800.492,1201.15 800.976,1199.38C801.232,1198.5 801.534,1197.59 801.902,1196.67C802.308,1195.74 802.733,1194.88 803.357,1193.97C804.548,1192.23 806,1190.87 807.445,1189.73C808.874,1188.58 810.326,1187.69 811.615,1187.01C812.895,1186.32 814.041,1185.87 814.859,1185.61C815.691,1185.34 816.175,1185.31 816.175,1185.31C816.175,1185.31 815.775,1185.61 815.178,1186.16C814.574,1186.73 813.713,1187.53 812.677,1188.5C810.69,1190.44 807.858,1192.95 805.851,1195.69C805.367,1196.32 804.935,1197.14 804.558,1197.89C804.149,1198.67 803.785,1199.46 803.454,1200.25C802.765,1201.82 802.197,1203.34 801.707,1204.65C801.229,1205.97 800.856,1207.08 800.635,1207.87C800.395,1208.66 800.427,1209.13 800.466,1209.13C800.447,1209.15 800.151,1208.7 800.064,1207.83C799.956,1206.97 799.934,1205.74 800.07,1204.29Z" style="fill:rgb(245,245,245);"/>
                </g>
            </g>
        </g>
    </g>
</svg>
