<?xml version="1.0" encoding="UTF-8" standalone="no"?><!DOCTYPE svg PUBLIC "-//W3C//DTD SVG 1.1//EN" "http://www.w3.org/Graphics/SVG/1.1/DTD/svg11.dtd"><svg width="100%" height="100%" viewBox="0 0 94 94" version="1.1" xmlns="http://www.w3.org/2000/svg" xmlns:xlink="http://www.w3.org/1999/xlink" xml:space="preserve" xmlns:serif="http://www.serif.com/" style="fill-rule:evenodd;clip-rule:evenodd;stroke-linejoin:round;stroke-miterlimit:1.41421;"><path d="M70.48,0c12.966,0 23.493,10.527 23.493,23.493l0,46.987c0,12.966 -10.527,23.493 -23.493,23.493l-46.987,0c-12.966,0 -23.493,-10.527 -23.493,-23.493l0,-46.987c0,-12.966 10.527,-23.493 23.493,-23.493l46.987,0Zm-38.405,46.532c-0.861,7.115 -2.685,17.667 1.836,24.445c0.829,1.241 7.125,2.827 15.296,3.337c4.677,0.292 9.611,0.211 13.574,0.306c4.638,0.111 0.184,-22.427 1.967,-23.86c0.257,-0.206 3.523,24.735 -0.845,25.487c-3.843,0.662 -9.358,0.784 -14.068,0.717c-9.572,-0.135 -18.397,-0.944 -19.211,-1.493c-1.675,-1.129 -5.839,-20.113 1.451,-28.939Zm-8.989,1.034c-4.482,0.601 -17.923,-9.374 -7.04,-15.378c9.534,-5.259 15.231,5.954 18.456,2.957c5.294,-4.918 2.555,-14.081 14.182,-14.154c8.296,-0.051 9.942,10.36 13.182,11.838c0.653,0.297 11.037,-2.147 14.529,-1.703c8.609,1.093 -1.1,15.886 -1.1,15.886c0,0 11.543,-15.601 3.183,-17.126c-4.161,-0.76 -15.199,-0.622 -15.87,-0.798c-2.07,-0.543 0.264,-12.656 -13.44,-13.262c-12.75,-0.563 -10.969,8.471 -16.139,13.736c-2.989,3.044 -9.479,-8.954 -20.042,-1.793c-15.097,10.236 5.921,23.126 10.099,19.797Z" style="fill:#c86c29;"/></svg>