<?xml version="1.0" encoding="UTF-8" standalone="no"?>
<!DOCTYPE svg PUBLIC "-//W3C//DTD SVG 1.1//EN" "http://www.w3.org/Graphics/SVG/1.1/DTD/svg11.dtd">
<svg width="100%" height="100%" viewBox="0 0 113 102" version="1.1" xmlns="http://www.w3.org/2000/svg" xmlns:xlink="http://www.w3.org/1999/xlink" xml:space="preserve" xmlns:serif="http://www.serif.com/" style="fill-rule:evenodd;clip-rule:evenodd;stroke-linejoin:round;stroke-miterlimit:1.41421;">
    <g transform="matrix(1,0,0,1,-778.862,-27.6426)">
        <g transform="matrix(1,0,0,1,-3645.13,0)">
            <g transform="matrix(0.247425,0,0,0.247425,4423.99,22.106)">
                <path d="M325.703,84.534C298.354,47.24 256.087,22.377 208.848,22.377C131.773,22.377 67.13,84.534 67.13,164.095C24.863,191.444 0,236.197 0,285.922C0,365.483 64.643,432.613 146.691,432.613C203.875,432.613 253.601,397.805 278.464,348.079C290.895,353.052 305.813,355.538 318.245,355.538C392.833,355.538 454.991,293.381 454.991,218.792C454.99,146.691 397.805,87.02 325.703,84.534ZM318.244,330.676C303.326,330.676 288.409,328.19 275.977,323.217L273.491,323.217L271.005,323.217L268.519,323.217L266.033,323.217C266.033,323.217 263.547,323.217 263.547,325.703C263.547,325.703 261.061,325.703 261.061,328.189C261.061,328.189 261.061,330.675 258.575,330.675L258.575,333.161C241.171,380.4 196.418,412.722 144.206,412.722C77.076,412.722 22.378,358.024 22.378,290.894C22.378,248.627 47.241,206.36 84.535,186.47C84.535,186.47 87.021,186.47 87.021,183.984L87.021,181.498L87.021,179.012L87.021,176.526L87.021,174.04C87.021,171.554 87.021,171.554 87.021,169.067C87.021,104.424 139.233,52.212 203.876,52.212C243.657,52.212 280.951,72.102 303.327,106.91C305.813,111.883 310.786,111.883 313.272,111.883C375.429,111.883 425.155,161.609 425.155,223.766C430.127,280.95 380.401,330.676 318.244,330.676Z" style="fill-rule:nonzero;"/>
                <path d="M218.793,82.047C161.608,82.047 116.855,129.286 116.855,183.985C116.855,238.684 164.094,285.923 218.793,285.923C273.492,285.923 320.73,238.683 320.73,183.985C320.73,129.287 275.977,82.047 218.793,82.047ZM218.793,263.546C176.526,263.546 141.718,228.738 141.718,186.471C141.718,144.204 176.526,106.91 218.793,106.91C261.06,106.91 295.868,141.718 295.868,183.985C295.868,226.252 261.06,263.546 218.793,263.546Z" style="fill-rule:nonzero;"/>
                <path d="M109.396,278.464C104.423,273.491 96.965,273.491 91.992,278.464C87.019,283.437 87.019,290.895 91.992,295.868L96.965,300.841C99.451,303.327 101.938,303.327 106.91,303.327C111.882,303.327 114.369,303.327 116.855,300.841C121.828,295.868 121.828,288.41 116.855,283.437L109.396,278.464Z" style="fill-rule:nonzero;"/>
                <path d="M59.671,278.464C54.698,273.491 47.24,273.491 42.267,278.464C37.294,283.437 37.294,290.895 42.267,295.868L47.24,300.841C49.726,303.327 52.213,303.327 57.185,303.327C62.157,303.327 64.644,303.327 67.13,300.841C72.103,295.868 72.103,288.41 67.13,283.437L59.671,278.464Z" style="fill-rule:nonzero;"/>
                <path d="M159.122,328.189C154.149,323.216 146.691,323.216 141.718,328.189C136.745,333.162 136.745,340.62 141.718,345.593L146.691,350.566C149.177,353.052 151.664,353.052 156.636,353.052C161.608,353.052 164.095,353.052 166.581,350.566C171.554,345.593 171.554,338.135 166.581,333.162L159.122,328.189Z" style="fill-rule:nonzero;"/>
                <path d="M109.396,328.189C104.423,323.216 96.965,323.216 91.992,328.189C87.019,333.162 87.019,340.62 91.992,345.593L96.965,350.566C99.451,353.052 101.938,353.052 106.91,353.052C111.882,353.052 114.369,353.052 116.855,350.566C121.828,345.593 121.828,338.135 116.855,333.162L109.396,328.189Z" style="fill-rule:nonzero;"/>
                <path d="M183.985,169.067C188.958,164.094 191.444,156.636 186.471,151.663C183.985,146.69 176.526,144.204 171.553,149.177C159.122,159.122 146.69,181.499 166.58,206.362C169.066,208.848 174.039,211.335 176.525,211.335C179.011,211.335 181.498,211.335 183.984,208.849C188.957,203.876 191.443,196.418 186.47,191.445C174.04,179.012 181.499,171.553 183.985,169.067Z" style="fill-rule:nonzero;"/>
            </g>
        </g>
    </g>
</svg>
