<?xml version="1.0" encoding="UTF-8" standalone="no"?>
<!DOCTYPE svg PUBLIC "-//W3C//DTD SVG 1.1//EN" "http://www.w3.org/Graphics/SVG/1.1/DTD/svg11.dtd">
<svg width="100%" height="100%" viewBox="0 0 111 114" version="1.1" xmlns="http://www.w3.org/2000/svg" xmlns:xlink="http://www.w3.org/1999/xlink" xml:space="preserve" xmlns:serif="http://www.serif.com/" style="fill-rule:evenodd;clip-rule:evenodd;stroke-linejoin:round;stroke-miterlimit:1.41421;">
    <g transform="matrix(1,0,0,1,-1241.41,-15.937)">
        <g transform="matrix(0.513163,0,0,0.513163,942.35,29.0941)">
            <g transform="matrix(0.232589,0,0,0.232589,579.606,-25.6395)">
                <path d="M901.261,449.657C884.551,406.178 866.248,358.161 836.861,321.381C814.645,293.578 772.991,269.5 736.115,275.131C735.636,275.204 732.555,275.877 727.202,277.074C728.533,286.301 729.213,295.657 729.213,305.113C729.213,331.361 724.06,356.856 713.895,380.889C704.088,404.073 690.064,424.88 672.209,442.736C654.355,460.59 633.546,474.616 610.363,484.421C586.33,494.586 560.835,499.74 534.587,499.74C508.339,499.74 482.845,494.586 458.812,484.421C435.628,474.615 414.821,460.59 396.965,442.736C379.111,424.881 365.085,404.073 355.28,380.889C352.869,375.189 350.75,369.404 348.905,363.549C195.964,398.632 54.159,431.218 45.878,433.146C38.579,434.845 29.694,435.859 23.143,439.345C17.617,442.285 13.656,446.986 13.656,455.338L13.656,837.104C13.656,852.148 29.561,866.007 49.159,868.048L191.074,882.806L829.396,949.244C888.095,955.361 935.75,923.713 935.75,878.536C935.75,850.016 916.769,823.014 888.01,805.359C916.769,793.736 935.755,770.626 935.755,742.149C935.755,713.678 916.771,686.675 888.062,669.07C972.909,634.507 924.976,511.365 901.261,449.657ZM714.38,875.212L88.654,810.058L88.654,747.514L714.38,812.619C773.081,818.742 820.727,837.678 820.727,854.948C820.727,872.223 773.081,881.334 714.38,875.212ZM714.38,750.551L88.654,685.396L88.654,622.803L714.38,688.005C773.081,694.128 820.727,713.059 820.727,730.334C820.727,747.606 773.081,756.674 714.38,750.551ZM714.38,625.89L88.654,560.78L88.654,498.187L714.38,563.297C773.081,569.415 820.727,588.401 820.727,605.67C820.727,622.994 773.081,632.008 714.38,625.89Z" style="fill-rule:nonzero;"/>
            </g>
        </g>
        <g transform="matrix(0.513163,0,0,0.513163,942.35,29.0941)">
            <g transform="matrix(0.232589,0,0,0.232589,579.606,-25.6395)">
                <path d="M399.96,305.114C399.96,320.882 402.681,336.013 407.661,350.075C426.167,402.316 476.002,439.741 534.585,439.741C608.938,439.741 669.211,379.467 669.211,305.115C669.211,300.144 668.934,295.239 668.408,290.407C661.08,222.975 603.967,170.489 534.585,170.489C527.499,170.489 520.543,171.04 513.753,172.095C509.146,162.669 504.04,153.457 498.537,144.475C492.99,135.421 487.044,126.601 480.822,118.024C473.196,107.512 465.156,97.365 456.911,87.612C441.58,69.477 424.939,52.31 406.648,37.134C390.631,23.843 373.6,11.04 354.462,2.571C343.639,-2.219 331.23,-0.693 324.754,10.361C319.283,19.701 321.715,35.278 332.544,40.07C341.526,44.045 350.061,48.998 358.187,54.505C360.535,56.096 362.864,57.714 365.155,59.386C365.99,59.996 368.983,62.278 369.771,62.859C373.242,65.607 376.673,68.404 380.024,71.299C388.863,78.937 397.363,86.971 405.479,95.374C414.024,104.221 422.239,113.392 430.025,122.915C432.237,125.621 434.432,128.342 436.582,131.099C436.587,131.105 436.591,131.11 436.597,131.116C436.674,131.219 436.759,131.331 436.854,131.455C437.759,132.651 438.666,133.846 439.561,135.05C439.593,135.095 439.625,135.14 439.659,135.184C443.192,139.946 446.655,144.761 449.987,149.667C452.315,153.094 454.594,156.555 456.826,160.047C461.178,166.859 465.33,173.799 469.195,180.899C470.109,182.578 471.007,184.265 471.896,185.957C429.122,208.507 399.96,253.401 399.96,305.114Z" style="fill-rule:nonzero;"/>
            </g>
        </g>
    </g>
</svg>
