<?xml version="1.0" encoding="UTF-8" standalone="no"?>
<!DOCTYPE svg PUBLIC "-//W3C//DTD SVG 1.1//EN" "http://www.w3.org/Graphics/SVG/1.1/DTD/svg11.dtd">
<svg width="100%" height="100%" viewBox="0 0 124 97" version="1.1" xmlns="http://www.w3.org/2000/svg" xmlns:xlink="http://www.w3.org/1999/xlink" xml:space="preserve" xmlns:serif="http://www.serif.com/" style="fill-rule:evenodd;clip-rule:evenodd;stroke-linejoin:round;stroke-miterlimit:1.41421;">
    <g transform="matrix(1,0,0,1,-1082.56,-22.0822)">
        <g transform="matrix(0.62896,0,0,0.62896,658.72,226.683)">
            <g transform="matrix(0.727884,0,0,0.727884,673.875,-346.373)">
                <path d="M172.391,76.173C172.692,74.334 172.83,72.586 172.746,70.97L184.35,63.072C188.859,60.844 193.435,61.146 195.852,61.558C196.041,61.593 202.83,63.003 206.581,60.449C211.2,57.308 212.413,50.994 209.256,46.383C207.458,43.735 204.646,42.254 201.695,42.014C202.555,39.192 202.212,36.018 200.422,33.393C197.282,28.756 190.968,27.561 186.348,30.709C183.767,32.464 182.228,37.075 181.745,41.411C181.53,43.062 180.437,48.722 175.887,52.826L164.755,60.414C157.428,58.419 145.493,59.886 133.529,63.338C145.777,65.629 157.99,69.55 169.965,75.057L172.391,76.173Z" style="fill-rule:nonzero;"/>
            </g>
        </g>
        <g transform="matrix(0.62896,0,0,0.62896,658.72,226.683)">
            <g transform="matrix(0.727884,0,0,0.727884,673.875,-346.373)">
                <path d="M22.618,182.759L114.91,182.759C112.349,180.423 110.041,177.804 108.056,174.888C99.369,162.118 97.87,146.686 103.835,131.431C108.978,118.281 119.195,106.229 133.378,96.583C139.627,92.33 147.201,88.433 155.316,85.131C144.581,80.956 133.148,77.952 121.163,76.653C112.741,75.737 104.477,75.257 96.485,75.257C45.179,75.257 5,95.318 5,147.006C5,164.625 13.81,182.759 22.618,182.759Z" style="fill-rule:nonzero;"/>
            </g>
        </g>
        <g transform="matrix(0.62896,0,0,0.62896,658.72,226.683)">
            <g transform="matrix(0.727884,0,0,0.727884,673.875,-346.373)">
                <path d="M141.819,108.983C118.531,124.821 108.191,148.418 120.459,166.45C126.812,175.787 137.302,180.319 149.173,180.319C160.227,180.319 172.479,176.391 183.707,168.755C203.665,155.163 223.899,122.257 222.961,103.339L236.984,93.808C241.3,91.671 246.343,91.163 250.878,91.966C254.937,92.684 260.455,92.943 263.859,90.624C269.433,86.821 270.887,79.208 267.102,73.608C264.916,70.424 261.51,68.635 257.949,68.351C258.981,64.936 258.586,61.108 256.409,57.916C252.597,52.312 244.972,50.88 239.392,54.681C236.278,56.797 234.419,62.389 233.827,67.619C233.577,69.598 232.252,76.445 226.755,81.427L213.292,90.589C210.519,89.827 207.193,89.473 203.49,89.473C185.267,89.474 157.871,98.058 141.819,108.983Z" style="fill-rule:nonzero;"/>
            </g>
        </g>
        <g transform="matrix(0.62896,0,0,0.62896,658.72,226.683)">
            <g transform="matrix(0.727884,0,0,0.727884,673.875,-346.373)">
                <path d="M258.218,164.293L236.329,159.915C236.32,159.84 236.313,159.762 236.304,159.686C235.743,154.735 232.97,147.507 227.651,139.367C226.363,141.803 225.111,143.98 224.004,145.809C215.077,160.564 203.467,173.446 192.143,181.158C191.84,181.364 191.532,181.556 191.227,181.759C213.784,181.759 233.081,181.759 256.489,181.759C261.359,181.759 265.307,177.811 265.307,172.941C265.307,168.736 262.34,165.117 258.218,164.293Z" style="fill-rule:nonzero;"/>
            </g>
        </g>
        <g transform="matrix(0.62896,0,0,0.62896,658.72,226.683)">
            <g transform="matrix(0.727884,0,0,0.727884,673.875,-346.373)">
                <path d="M259.74,198.759L8.818,198.759C5.785,198.759 2.965,200.318 1.35,202.887C-0.263,205.455 -0.443,208.673 0.873,211.406L8.755,227.762C12.438,235.402 20.17,240.259 28.651,240.259L239.905,240.259C248.386,240.259 256.119,235.402 259.802,227.762L267.684,211.406C269,208.674 268.821,205.456 267.207,202.887C265.594,200.317 262.774,198.759 259.74,198.759Z" style="fill-rule:nonzero;"/>
            </g>
        </g>
    </g>
</svg>
