<?xml version="1.0" encoding="UTF-8" standalone="no"?>
<!DOCTYPE svg PUBLIC "-//W3C//DTD SVG 1.1//EN" "http://www.w3.org/Graphics/SVG/1.1/DTD/svg11.dtd">
<svg width="100%" height="100%" viewBox="0 0 118 97" version="1.1" xmlns="http://www.w3.org/2000/svg" xmlns:xlink="http://www.w3.org/1999/xlink" xml:space="preserve" xmlns:serif="http://www.serif.com/" style="fill-rule:evenodd;clip-rule:evenodd;stroke-linejoin:round;stroke-miterlimit:1.41421;">
    <g transform="matrix(1,0,0,1,-933.666,-22.0822)">
        <g transform="matrix(0.390276,0,0,0.390276,901.653,224.186)">
            <g transform="matrix(3.25043,0,0,3.25043,82.028,-544.959)">
                <path d="M85.508,33.972L7.575,33.972C7.575,19.816 19.05,8.341 33.206,8.341L59.878,8.341C74.033,8.341 85.508,19.816 85.508,33.972ZM6.945,65.361C6.945,75.988 15.558,84.599 26.183,84.599L66.903,84.599C77.527,84.599 86.139,75.988 86.139,65.361L6.945,65.361ZM85.515,53.527C83.559,53.876 81.577,54.09 79.631,54.224C74.877,54.55 69.797,54.499 65.127,53.195L63.281,53.195C57.665,56.187 50.545,56.544 44.454,55.298C42.81,54.962 40.971,53.921 39.155,53.195L33.321,53.195C29.54,54.687 26.465,56.462 22.061,55.718C20.253,55.413 19.164,54.431 18.668,53.195L9.386,53.195C6.498,53.195 4.157,55.537 4.157,58.424C4.157,61.313 6.499,63.653 9.386,63.653L83.697,63.653C86.586,63.653 88.926,61.311 88.926,58.424C88.926,56.177 87.506,54.265 85.515,53.527ZM80.029,49.931L85.844,51.382C86.99,51.667 88.15,50.972 88.434,49.827C88.72,48.681 88.025,47.521 86.879,47.237L80.329,45.601C79.85,45.484 79.35,45.533 78.905,45.74C76.056,47.074 72.478,48.513 71.157,48.769C70.186,48.29 67.99,47.671 62.362,47.123C62.042,47.092 61.716,47.133 61.417,47.246L57.732,48.602L51.223,47.164C50.936,47.101 50.637,47.096 50.348,47.154L42.579,48.688L35.933,48.688L29.924,47.176C29.61,47.1 29.28,47.094 28.96,47.16C25.84,47.824 22.11,48.552 21.053,48.673C20.596,48.457 19.645,47.832 19.051,47.444C16.99,46.089 15.628,45.195 14.216,45.664C13.657,45.836 9.758,46.635 6.311,47.305C5.153,47.532 4.398,48.653 4.624,49.811C4.848,50.969 5.969,51.723 7.128,51.499C9.041,51.127 13.191,50.309 14.912,49.895C15.383,50.147 16.185,50.674 16.705,51.016C18.599,52.26 19.725,52.965 20.861,52.965C22.011,52.965 26.863,51.973 29.363,51.444L35.149,52.899C35.319,52.942 35.494,52.963 35.67,52.963L42.789,52.963C42.928,52.963 43.066,52.949 43.203,52.922L50.74,51.434L57.423,52.913C57.823,53.002 58.239,52.973 58.622,52.831L62.433,51.428C65.109,51.706 68.199,52.182 69.092,52.522C69.424,52.832 69.841,53.104 70.712,53.104C72.12,53.101 74.709,52.384 80.029,49.931ZM4.44,42.247C7.336,42.618 9.915,41.958 13.127,43.358C16.338,44.758 17.767,47.036 21.704,47.35C28.004,47.803 31.503,44.743 36.924,43.412C38.982,42.777 41.329,42.654 43.676,42.531C47.313,42.078 50.592,39.814 53.694,39.127C57.591,38.66 58.032,42.037 61.476,42.902C63.069,43.34 67.199,42.338 69.024,42.242C69.26,42.228 69.545,42.232 69.849,42.244C71.968,43.631 73.907,44.076 76.696,43.93C77.739,43.873 78.068,45.164 79.344,44.575C80.04,44.36 80.215,43.335 80.336,42.692C81.566,42.538 82.596,42.219 83.236,41.631C86.765,41.162 92.009,40.647 92.844,37.848C94.464,33.84 75.06,37.741 71.916,37.645C68.252,37.577 65.26,35.381 61.35,35.586C56.396,35.848 52.539,37.098 47.887,38.127C39.873,39.856 30.705,39.555 23.157,40.215C17.696,40.764 16.447,36.906 11.945,35.838C9.571,35.44 1.215,35.617 0.323,38.541C-1.064,42.015 2.339,42.097 4.44,42.247Z" style="fill-rule:nonzero;"/>
            </g>
        </g>
    </g>
</svg>
