<?xml version="1.0" encoding="UTF-8" standalone="no"?>
<!DOCTYPE svg PUBLIC "-//W3C//DTD SVG 1.1//EN" "http://www.w3.org/Graphics/SVG/1.1/DTD/svg11.dtd">
<svg width="100%" height="100%" viewBox="0 0 108 108" version="1.1" xmlns="http://www.w3.org/2000/svg" xmlns:xlink="http://www.w3.org/1999/xlink" xml:space="preserve" xmlns:serif="http://www.serif.com/" style="fill-rule:evenodd;clip-rule:evenodd;stroke-linejoin:round;stroke-miterlimit:1.41421;">
    <g transform="matrix(1,0,0,1,-689.463,-174.665)">
        <g transform="matrix(1,0,0,1,-3645.13,0)">
            <g transform="matrix(0.654915,0,0,0.654915,3754.05,44.1226)">
                <path d="M1031.28,362.803L925.022,362.803C903.73,362.803 886.444,345.517 886.444,324.226L886.444,237.905C886.444,216.614 903.73,199.328 925.022,199.327L1031.28,199.327C1041.69,199.328 1050.14,207.782 1050.14,218.195L1050.14,343.935C1050.14,354.349 1041.69,362.803 1031.28,362.803ZM1009.2,320.196L920.074,320.196C918.198,320.196 916.675,321.719 916.675,323.595L916.675,330.393C916.675,332.269 918.198,333.792 920.074,333.792L1009.2,333.792C1011.07,333.792 1012.6,332.269 1012.6,330.393L1012.6,323.595C1012.6,321.719 1011.07,320.196 1009.2,320.196ZM1009.2,287.542L920.074,287.542C918.197,287.542 916.675,289.065 916.675,290.941L916.675,297.739C916.675,299.615 918.198,301.138 920.074,301.138L1009.2,301.138C1011.07,301.138 1012.6,299.615 1012.6,297.739L1012.6,290.941C1012.6,289.065 1011.07,287.542 1009.2,287.542ZM1009.2,257.902L920.074,257.902C918.197,257.902 916.675,259.425 916.675,261.301L916.675,268.099C916.675,269.975 918.198,271.499 920.074,271.499L1009.2,271.499C1011.07,271.499 1012.6,269.975 1012.6,268.099L1012.6,261.301C1012.6,259.425 1011.07,257.902 1009.2,257.902ZM1022.84,223.421L921.07,223.421C918.644,223.421 916.675,225.391 916.675,227.817L916.675,236.608C916.675,239.034 918.644,241.003 921.07,241.003L1022.84,241.003C1025.27,241.003 1027.24,239.034 1027.24,236.608L1027.24,227.817C1027.24,225.391 1025.27,223.421 1022.84,223.421Z"/>
            </g>
        </g>
    </g>
</svg>
