<?xml version="1.0" encoding="UTF-8" standalone="no"?>
<!DOCTYPE svg PUBLIC "-//W3C//DTD SVG 1.1//EN" "http://www.w3.org/Graphics/SVG/1.1/DTD/svg11.dtd">
<svg width="100%" height="100%" viewBox="0 0 88 108" version="1.1" xmlns="http://www.w3.org/2000/svg" xmlns:xlink="http://www.w3.org/1999/xlink" xml:space="preserve" xmlns:serif="http://www.serif.com/" style="fill-rule:evenodd;clip-rule:evenodd;stroke-linejoin:round;stroke-miterlimit:1.41421;">
    <g transform="matrix(1,0,0,1,-675.955,-22.0822)">
        <g transform="matrix(1,0,0,1,-3645.13,0)">
            <g id="Apple" transform="matrix(0.12833,0,0,0.12833,4311.45,22.0821)">
                <path d="M326.253,831.194C355.193,842.668 390.611,818.424 417.139,818.424C443.667,818.424 481.733,837.152 502.779,831.194C660.601,786.513 759.19,553.29 759.19,442.168C759.19,367.509 735.497,278.82 627.276,232.834C530.358,191.65 500.189,230.16 439.694,238.654C439.361,229.998 438.868,221.347 438.215,212.705C458.649,196.799 499.621,170.869 565.136,154.554C664.995,129.686 703.332,7.913 703.332,7.913C703.332,7.913 581.663,-18.831 506.938,26.016C464.437,51.523 441.896,106.109 430.354,148.45C425.192,118.006 418.008,87.908 408.822,58.463C407.187,50.085 405.296,42.904 403.106,37.539C387.537,-0.612 342.866,17.94 342.866,37.539C342.866,50.553 350.128,57.117 358.181,64.127C368.304,95.269 376.149,127.095 381.677,159.379C382.421,163.724 383.104,168.079 383.762,172.438C384.044,174.306 384.31,176.176 384.576,178.047C384.618,178.349 384.652,178.607 384.684,178.837C384.767,179.479 384.852,180.121 384.933,180.764C386.052,189.509 386.96,198.28 387.732,207.062C388.642,217.413 389.277,227.787 389.679,238.171C328.261,229.126 286.663,194.694 206.94,227.025C115.922,263.937 75.088,368.137 75.088,442.17C75.088,547.129 181.458,773.787 326.253,831.194ZM175.043,364.905C175.043,337.649 197.787,314.905 225.043,314.905C252.299,314.905 275.043,337.649 275.043,364.905C275.043,392.161 252.299,414.905 225.043,414.905C197.788,414.905 175.043,392.161 175.043,364.905Z" style="fill-rule:nonzero;"/>
            </g>
        </g>
    </g>
</svg>
